<?xml version="1.0" standalone="no"?>
<!DOCTYPE svg PUBLIC "-//W3C//DTD SVG 20010904//EN"
 "http://www.w3.org/TR/2001/REC-SVG-20010904/DTD/svg10.dtd">
<svg version="1.0" xmlns="http://www.w3.org/2000/svg"
 width="371.000000pt" height="369.000000pt" viewBox="0 0 371.000000 369.000000"
 preserveAspectRatio="xMidYMid meet">

<g transform="translate(0.000000,369.000000) scale(0.100000,-0.100000)"
fill="#000000" stroke="none">
<path d="M1790 3316 c-19 -7 -107 -45 -195 -84 -88 -38 -261 -114 -385 -167
-124 -53 -290 -125 -370 -160 -80 -35 -188 -82 -240 -104 l-95 -40 -3 -65 -3
-65 53 -3 53 -3 5 -70 5 -70 150 -5 c124 -4 146 -7 129 -17 -12 -7 -29 -28
-38 -47 -14 -30 -16 -96 -16 -576 0 -480 2 -546 16 -576 9 -19 25 -39 35 -45
45 -24 12 -29 -181 -29 l-200 0 0 -215 0 -215 -30 0 -30 0 0 -115 0 -115 1378
-2 c757 -2 1387 -2 1400 0 22 3 23 6 20 115 -3 107 -4 112 -25 115 -22 3 -23
5 -25 215 l-3 212 -165 5 -165 5 -1 58 c-1 67 -10 77 -66 77 l-38 0 0 235 c0
129 3 235 8 236 43 3 85 9 89 13 2 2 5 27 7 56 4 63 -10 80 -65 80 l-39 0 2
198 3 197 44 5 c50 6 59 19 55 87 l-2 42 117 3 116 3 5 70 5 70 50 5 50 5 3
57 c3 50 0 59 -20 72 -13 8 -117 55 -233 104 -254 109 -535 231 -829 359 -228
100 -276 112 -336 89z m324 -120 c132 -57 421 -181 641 -276 220 -95 406 -177
413 -183 7 -6 12 -24 10 -41 -3 -30 -5 -31 -55 -34 l-52 -3 -3 -72 -3 -72
-1210 0 -1210 0 -3 73 -3 72 -54 0 -55 0 0 38 0 39 423 181 c232 100 526 226
652 281 127 55 238 100 249 100 10 1 127 -46 260 -103z m-817 -755 c-20 -22
-39 -55 -42 -73 -3 -18 -5 -270 -3 -559 l3 -527 33 -40 c17 -23 32 -43 32 -46
0 -3 -43 -6 -95 -6 -52 0 -95 3 -95 6 0 3 13 17 30 30 16 14 34 42 40 62 15
54 13 505 -2 520 -7 7 -39 12 -73 12 -34 0 -66 -5 -73 -12 -9 -9 -12 -78 -12
-251 0 -222 -1 -238 -17 -235 -17 3 -18 36 -21 498 -1 272 0 505 3 518 3 12
12 22 20 22 13 0 15 -31 15 -206 0 -122 4 -213 10 -225 9 -16 22 -19 73 -19
36 0 68 5 75 12 16 16 17 421 1 469 -7 19 -23 46 -37 62 l-26 27 98 0 98 0
-35 -39z m373 -606 l0 -645 -62 0 -62 0 26 28 c14 15 31 37 37 49 8 15 11 184
11 568 0 591 0 593 -54 630 -19 14 -16 15 42 15 l62 0 0 -645z m260 64 c0
-526 -2 -581 -16 -575 -9 3 -31 6 -50 6 l-34 0 0 575 0 575 50 0 50 0 0 -581z
m280 -64 c0 -423 -3 -645 -10 -645 -6 0 -10 26 -10 58 0 68 -11 82 -62 82
l-38 0 2 238 3 237 22 -2 c13 -2 34 2 48 7 22 9 25 15 25 63 0 63 -11 77 -62
77 l-38 0 0 199 0 200 48 3 47 3 3 63 c2 34 7 62 12 62 6 0 10 -243 10 -645z
m390 -1 l0 -645 -21 3 c-20 3 -20 7 -19 293 0 270 -1 293 -19 329 -19 36 -19
40 -3 64 14 22 18 58 20 227 5 260 0 299 -43 342 l-33 33 59 0 59 0 0 -646z
m-1483 616 c59 -35 63 -55 63 -295 l0 -215 -49 0 -50 0 -3 215 c-2 178 -6 217
-18 225 -26 17 -59 11 -75 -14 -14 -20 -15 -87 -13 -540 3 -499 4 -518 22
-532 25 -18 37 -18 62 0 18 13 19 30 22 256 l3 241 47 -3 47 -3 3 -240 c2
-223 1 -242 -17 -272 -27 -44 -59 -63 -119 -70 -39 -4 -60 -1 -94 15 -82 40
-78 11 -78 619 0 522 1 539 20 571 11 18 35 39 53 47 48 21 136 19 174 -5z
m403 5 c15 -8 38 -27 49 -41 21 -26 21 -34 21 -579 l0 -553 -28 -30 c-82 -88
-257 -47 -275 65 -4 21 -7 263 -7 538 0 456 2 503 18 535 33 66 152 101 222
65z m280 -575 l0 -580 50 0 50 0 0 -40 0 -40 -100 0 -100 0 0 620 0 620 50 0
50 0 0 -580z m360 540 l0 -40 -50 0 -50 0 0 -230 0 -230 50 0 50 0 0 -39 0
-40 -47 -3 -48 -3 -3 -267 c-2 -250 -1 -268 15 -269 83 -4 78 -2 81 -41 l3
-38 -100 0 -101 0 0 620 0 620 100 0 100 0 0 -40z m324 17 c15 -10 31 -30 37
-44 6 -16 9 -120 7 -261 l-3 -234 -28 -24 -28 -24 28 -24 28 -24 3 -291 3
-291 -56 0 -55 0 0 283 c0 299 -1 307 -47 307 l-23 0 0 -295 0 -295 -55 0 -55
0 0 621 0 621 108 -3 c83 -3 115 -8 136 -22z m351 -17 c0 -35 0 -35 -50 -40
l-50 -5 -2 -227 -3 -227 53 -3 52 -3 0 -35 c0 -35 0 -35 -50 -40 l-50 -5 -3
-267 -3 -268 50 0 c52 0 61 -8 61 -56 0 -24 -1 -24 -105 -24 l-105 0 0 620 0
621 103 -3 102 -3 0 -35z m-445 -936 c0 -172 -4 -293 -9 -290 -10 7 -16 561
-6 576 3 6 8 10 11 10 2 0 4 -133 4 -296z m760 -545 l0 -219 30 0 30 0 0 -80
0 -80 -1355 0 -1355 0 0 80 c0 79 0 80 25 80 l25 0 0 220 0 220 1148 2 c631 2
1216 2 1300 0 l152 -3 0 -220z"/>
<path d="M1665 3106 c-82 -34 -294 -120 -470 -192 -252 -101 -313 -130 -288
-132 21 -2 75 14 155 47 68 27 273 110 457 185 184 75 339 136 345 136 10 0
177 -67 666 -267 171 -70 265 -103 285 -101 33 3 64 -10 -559 243 -271 109
-369 145 -400 144 -26 -1 -97 -24 -191 -63z"/>
<path d="M1406 2374 c-14 -14 -16 -73 -14 -542 l3 -526 25 -13 c20 -10 29 -10
45 1 20 13 20 25 23 541 1 381 -1 532 -9 541 -15 19 -54 18 -73 -2z m54 -534
c0 -513 0 -520 -20 -520 -20 0 -20 7 -20 513 0 283 3 517 7 520 3 4 12 7 20 7
11 0 13 -93 13 -520z"/>
<path d="M2350 2135 l0 -245 23 0 c45 0 47 11 47 245 0 234 -2 245 -47 245
l-23 0 0 -245z m40 0 c0 -124 -4 -205 -10 -205 -5 0 -9 81 -9 205 0 123 4 205
9 205 6 0 10 -82 10 -205z"/>
<path d="M720 730 c0 -20 7 -20 1120 -20 1113 0 1120 0 1120 20 0 20 -7 20
-1120 20 -1113 0 -1120 0 -1120 -20z"/>
</g>
</svg>
